<svg xmlns="http://www.w3.org/2000/svg">
    <symbol id="logo" viewBox="0 0 454.16 454.16">
        <path class="color" d="M227.08,7.74A219.34,219.34,0,0,1,382.17,382.17,219.33,219.33,0,1,1,72,72,217.87,217.87,0,0,1,227.08,7.74m0-7.74C101.67,0,0,101.67,0,227.08S101.67,454.16,227.08,454.16,454.16,352.49,454.16,227.08,352.49,0,227.08,0"/>
        <path class="color" d="M227.08,83.59c79.12,0,143.49,64.37,143.49,143.49S306.2,370.57,227.08,370.57,83.59,306.2,83.59,227.08,148,83.59,227.08,83.59m0-7.74A151.23,151.23,0,1,0,378.31,227.08,151.23,151.23,0,0,0,227.08,75.85"/>
        <path d="M278.26,247H300.7a2.4,2.4,0,0,0,2-3.72l-20.8-31.6a2.38,2.38,0,0,0-2-1.08H216.27a10.41,10.41,0,1,1,0-20.82H267.5l0,0h13a2.4,2.4,0,0,0,2-3.65l-26.58-43.33L229.12,99.12a2.4,2.4,0,0,0-4.09,0l-26.78,43.66-26.59,43.33a2.4,2.4,0,0,0,2.05,3.65h13l-35.23,53.53a2.4,2.4,0,0,0,2,3.72H175.9l0,0h76.06a10.41,10.41,0,0,1,0,20.82H163.7a2.41,2.41,0,0,0-2,1.1l-23.16,35.78a2.39,2.39,0,0,0,2,3.7h76.13v47.74h20.82V308.44h76.13a2.4,2.4,0,0,0,2-3.7Z"/>
        <path d="M176,424.49l-1.38,4.25-16.84-5.47q-5.7-1.86-4.2-6.5l5.51-16.93,6.09,2-4.64,14.29q-.51,1.56,1.59,2.25l8.29,2.69,6.57-20.2,6.05,2-5.17,15.91,4,1.28-1.87,5.76Zm-3.33-26.76a3.54,3.54,0,0,1-2.79.28,3.62,3.62,0,0,1-2.21-1.85,3.55,3.55,0,0,1-.21-2.82,3.39,3.39,0,0,1,1.81-2.08,3.67,3.67,0,0,1,2.86-.18,3.61,3.61,0,0,1,2.16,1.81,3.4,3.4,0,0,1,.24,2.75,3.52,3.52,0,0,1-1.86,2.09"/>
        <rect x="184.75" y="414" width="6.05" height="19.44" transform="matrix(0.2, -0.98, 0.98, 0.2, -264.44, 525.21)"/>
        <path d="M201.18,438.5a3.56,3.56,0,0,1-2.66.82A3.69,3.69,0,0,1,196,438a3.6,3.6,0,0,1,.6-5.15,3.69,3.69,0,0,1,2.71-.77,3.64,3.64,0,0,1,2.5,1.32,3.54,3.54,0,0,1,.79,2.74,3.42,3.42,0,0,1-1.39,2.36m-5.43-10.05.64-6,10.3,1.1,1.76-16.64,6.33.67-2.4,22.65Zm13.93,10.95a3.77,3.77,0,0,1-5.24-.51,3.59,3.59,0,0,1,.6-5.14,3.77,3.77,0,0,1,5.2.55A3.5,3.5,0,0,1,211,437a3.46,3.46,0,0,1-1.36,2.36"/>
        <path d="M231.58,430.61a9.67,9.67,0,0,1-4,8h-8q5.64-4.43,5.64-8l0-22.78h6.41l0,16.72Zm-5.37-28.93a3.81,3.81,0,0,1-2.67,1,3.66,3.66,0,0,1-2.61-1,3.32,3.32,0,0,1-1.08-2.51,3.79,3.79,0,0,1,1.07-2.62,4.28,4.28,0,0,1,2.62-1,3.74,3.74,0,0,1,2.67,1,3.47,3.47,0,0,1,1.08,2.62,3.55,3.55,0,0,1-1.08,2.51m4-8.11a4,4,0,0,1-2.71,1,3.51,3.51,0,0,1-2.57-1.05,3.56,3.56,0,0,1,0-5.1,3.89,3.89,0,0,1,2.57-1.08,3.83,3.83,0,0,1,2.69,1,3.32,3.32,0,0,1,1.11,2.59,3.9,3.9,0,0,1-1.08,2.61m4.84,8.1a4.13,4.13,0,0,1-2.72,1,3.57,3.57,0,0,1-2.62-1.05,3.46,3.46,0,0,1-1.08-2.58,3.34,3.34,0,0,1,1.08-2.52,4,4,0,0,1,2.61-1.08,3.83,3.83,0,0,1,2.69,1,3.32,3.32,0,0,1,1.11,2.59,3.94,3.94,0,0,1-1.07,2.61"/>
        <polygon points="242.78 430.01 238.94 387.45 245.32 386.87 248.62 423.4 251.94 423.11 252.49 429.13 242.78 430.01"/>
        <rect x="249.48" y="421.95" width="19.44" height="6.05" transform="translate(-65.4 47.59) rotate(-9.32)"/>
        <path d="M268.48,427.33l-1.8-5.78,29.14-9.08-2-6.51q-1.05-3.39-3.79-2.53l-23.51,7.33-1.9-6.08,14.08-21L289,380.43l-13.74,20.94L289.38,397q7.59-2.35,9.64,4.2l4.73,15.19Z"/>
        <path d="M75.23,80.58l5.25-4.66,33.18,37.4L108.41,118ZM98,97.91,95.86,62.27l6.45-5.73,1.87,49.93ZM101,88.84l.74-7.51,35.29,11.22-6.43,5.7Z"/>
        <path d="M130.56,40.1l5.35-2.67,38.82,36.51L168,77.31l-30.41-29.9,5.61,42.28-6.77,3.38Zm5.56,33.39,23.53-11.75,3,6L139.1,79.46Z"/>
        <path d="M183.69,21.18,189.56,20l27.67,45.54L209.8,67,188.48,30.09,182.6,72.34l-7.43,1.44Zm-3.56,33.66,25.82-5,1.28,6.55-25.82,5Z"/>
        <polygon points="252.54 23.76 228.98 59.93 251.41 61.03 251.08 67.69 220.03 66.17 220.33 60.13 244.06 23.97 222.77 22.93 223.09 16.26 252.84 17.72 252.54 23.76"/>
        <path d="M272.19,20.81l6.7,2.06L264.16,70.65l-6.7-2.06Zm-2.32,22.35,26.52,8.17-2,6.38L267.9,49.53Zm29.46-14L306,31.24,291.31,79,284.6,77Z"/>
        <rect x="290.02" y="60.36" width="50" height="7.02" transform="translate(109.16 310.72) rotate(-61.63)"/>
        <polygon points="347.39 53.51 352.28 57.58 346.35 102.93 345.14 103.09 370.44 72.69 375.77 77.14 343.81 115.54 338.87 111.43 344.48 66.57 345.69 66.41 320.77 96.36 315.43 91.92 347.39 53.51"/>
    </symbol>
    <symbol id="aparat" viewBox="0 0 68.33 68.33">
        <path d="M29.49,2,23.2.36A10.58,10.58,0,0,0,10.25,7.87L8.68,13.8A32.4,32.4,0,0,1,29.49,2Z"/>
        <path d="M1.9,39.33.36,45.14A10.58,10.58,0,0,0,7.87,58.08l6,1.6A32.41,32.41,0,0,1,1.9,39.33Z"/>
        <path d="M60.46,10.25,53.73,8.46a32.4,32.4,0,0,1,12.4,21.7l1.85-7A10.58,10.58,0,0,0,60.46,10.25Z"/>
        <path d="M38.69,66.26,45.14,68a10.58,10.58,0,0,0,12.94-7.51l1.82-6.84A32.42,32.42,0,0,1,38.69,66.26Z"/>
        <path d="M34.17,4.54A29.63,29.63,0,1,0,63.79,34.17,29.63,29.63,0,0,0,34.17,4.54ZM17.39,19.32a8.46,8.46,0,1,1,6.71,9.91A8.46,8.46,0,0,1,17.39,19.32ZM29.7,44.92A8.46,8.46,0,1,1,23,35,8.46,8.46,0,0,1,29.7,44.92Zm3.59-6.85a3.76,3.76,0,1,1,4.41-3A3.76,3.76,0,0,1,33.29,38.07ZM50.94,49a8.46,8.46,0,1,1-6.71-9.91A8.46,8.46,0,0,1,50.94,49Zm-5.6-15.68a8.46,8.46,0,1,1,9.91-6.71A8.46,8.46,0,0,1,45.34,33.33Z"/>
    </symbol>
</svg>